HIERARCHY
ROOT Hips
{
 OFFSET 0.000000 0.000000 0.000000
 CHANNELS 6 Xposition Yposition Zposition Yrotation Xrotation Zrotation
 JOINT Chest
 {
  OFFSET 0.000000 9.585900 0.002600
  CHANNELS 3 Yrotation Xrotation Zrotation
  JOINT Chest2
  {
   OFFSET 0.000000 9.601200 -0.005300
   CHANNELS 3 Yrotation Xrotation Zrotation
   JOINT Chest3
   {
    OFFSET 0.000000 9.561800 0.000000
    CHANNELS 3 Yrotation Xrotation Zrotation
    JOINT Chest4
    {
     OFFSET 0.000000 9.552100 0.000000
     CHANNELS 3 Yrotation Xrotation Zrotation
     JOINT Neck
     {
      OFFSET 0.000000 14.453000 0.000000
      CHANNELS 3 Yrotation Xrotation Zrotation
      JOINT Head
      {
       OFFSET 0.000000 8.936500 -0.011300
       CHANNELS 3 Yrotation Xrotation Zrotation
       End Site
       {
        OFFSET 0.000000 17.073600 -0.006000
       }
      }
     }
     JOINT RightCollar
     {
      OFFSET -2.921100 9.558500 0.000000
      CHANNELS 3 Yrotation Xrotation Zrotation
      JOINT RightShoulder
      {
       OFFSET -13.519700 0.000000 0.000000
       CHANNELS 3 Yrotation Xrotation Zrotation
       JOINT RightElbow
       {
        OFFSET 0.000000 -29.696600 0.000000
        CHANNELS 3 Yrotation Xrotation Zrotation
        JOINT RightWrist
        {
         OFFSET 0.000000 -24.004700 0.000000
         CHANNELS 3 Yrotation Xrotation Zrotation
         End Site
         {
          OFFSET 0.000000 -17.728500 0.000000
         }
        }
       }
      }
     }
     JOINT LeftCollar
     {
      OFFSET 2.921100 9.558500 0.000000
      CHANNELS 3 Yrotation Xrotation Zrotation
      JOINT LeftShoulder
      {
       OFFSET 13.519700 0.000000 0.000000
       CHANNELS 3 Yrotation Xrotation Zrotation
       JOINT LeftElbow
       {
        OFFSET 0.000000 -29.696600 0.000000
        CHANNELS 3 Yrotation Xrotation Zrotation
        JOINT LeftWrist
        {
         OFFSET 0.000000 -24.004700 0.000000
         CHANNELS 3 Yrotation Xrotation Zrotation
         End Site
         {
          OFFSET 0.000000 -17.728500 0.000000
         }
        }
       }
      }
     }
    }
   }
  }
 }
 JOINT RightHip
 {
  OFFSET -7.771700 -0.012900 -0.001300
  CHANNELS 3 Yrotation Xrotation Zrotation
  JOINT RightKnee
  {
   OFFSET 0.000000 -40.869800 0.001200
   CHANNELS 3 Yrotation Xrotation Zrotation
   JOINT RightAnkle
   {
    OFFSET 0.000000 -39.717900 0.002100
    CHANNELS 3 Yrotation Xrotation Zrotation
    JOINT RightToe
    {
     OFFSET 0.000000 -4.965400 11.033500
     CHANNELS 3 Yrotation Xrotation Zrotation
     End Site
     {
      OFFSET 0.000000 -1.423100 5.872300
     }
    }
   }
  }
 }
 JOINT LeftHip
 {
  OFFSET 7.771700 -0.012900 -0.001300
  CHANNELS 3 Yrotation Xrotation Zrotation
  JOINT LeftKnee
  {
   OFFSET 0.000000 -40.869800 0.001200
   CHANNELS 3 Yrotation Xrotation Zrotation
   JOINT LeftAnkle
   {
    OFFSET 0.000000 -39.717900 0.002100
    CHANNELS 3 Yrotation Xrotation Zrotation
    JOINT LeftToe
    {
     OFFSET 0.000000 -4.965400 11.033500
     CHANNELS 3 Yrotation Xrotation Zrotation
     End Site
     {
      OFFSET 0.000000 -1.423100 5.872300
     }
    }
   }
  }
 }
}
MOTION
Frames: 9
Frame Time: 0.008333
-135.208060 51.643627 -58.025127 176.579351 -21.430828 1.405723 -2.322120 12.313467 0.484708 -0.182393 0.932110 0.102179 -0.304601 1.602428 0.171481 -2.081349 11.189348 1.040950 -2.010830 19.179461 -1.477195 -1.795822 -5.448772 -1.108132 6.633835 16.108708 11.923636 24.714784 -8.588656 -30.552132 138.161000 -54.543239 -178.232557 0.084235 4.167551 -13.792599 -4.445620 16.421790 -15.696103 -23.337983 -2.857984 31.396580 -120.403415 -59.959999 166.941727 14.210917 4.124490 13.551161 -11.121252 -61.365345 4.979132 -97.868705 84.874298 -106.164111 -3.654806 -9.241965 6.433399 0.259543 -0.877750 0.151238 13.580227 -58.605732 -10.689469 42.259525 85.287283 48.557090 -2.050382 -13.674892 0.384917 0.203023 0.566516 0.099030
-135.211005 51.643610 -58.027716 176.590091 -21.415719 1.403626 -2.321964 12.316457 0.484145 -0.189327 0.918808 0.103249 -0.297244 1.617472 0.169730 -2.080852 11.195288 1.039209 -1.983327 19.194442 -1.470634 -1.802893 -5.470625 -1.095157 6.627068 16.109460 11.933346 24.698490 -8.596350 -30.559288 138.169364 -54.511001 -178.238016 0.086177 4.156665 -13.765588 -4.447477 16.418796 -15.700902 -23.342137 -2.864695 31.416008 -120.358037 -59.948267 166.909982 14.194661 4.162518 13.506703 -11.130914 -61.379003 4.973486 -97.831640 84.865531 -106.125965 -3.642838 -9.215015 6.436330 0.258543 -0.868227 0.140491 13.610845 -58.617891 -10.715766 42.170406 85.294969 48.469167 -2.050748 -13.673301 0.398582 0.199923 0.565212 0.097975
-135.213733 51.643478 -58.030353 176.595998 -21.399612 1.402010 -2.316177 12.317954 0.484511 -0.191482 0.919478 0.103974 -0.300272 1.608811 0.170205 -2.060709 11.230456 1.030434 -1.985706 19.166402 -1.453603 -1.793874 -5.474133 -1.087805 6.608245 16.076902 11.946266 24.677314 -8.591145 -30.557968 138.126220 -54.468073 -178.206391 0.089069 4.153072 -13.739739 -4.454310 16.410776 -15.698076 -23.337214 -2.863147 31.438153 -120.289597 -59.915035 166.871842 14.185117 4.203930 13.456352 -11.136537 -61.394446 4.966172 -97.825647 84.859400 -106.112680 -3.636708 -9.196096 6.436009 0.255577 -0.835036 0.129141 13.642203 -58.631076 -10.738080 42.105240 85.301340 48.405102 -2.055940 -13.672823 0.409364 0.198462 0.564974 0.098844
-135.216068 51.643033 -58.032490 176.602917 -21.379217 1.398188 -2.309758 12.314935 0.486817 -0.191142 0.920687 0.104297 -0.306027 1.599934 0.171453 -2.060228 11.230710 1.030676 -1.983210 19.164138 -1.450703 -1.780110 -5.471552 -1.086214 6.607698 16.080142 11.950417 24.655285 -8.585065 -30.555616 138.132226 -54.439581 -178.212943 0.089593 4.152094 -13.736215 -4.456907 16.405926 -15.697245 -23.314158 -2.845858 31.428079 -120.163016 -59.872838 166.785647 14.182929 4.245353 13.405475 -11.147413 -61.412584 4.965300 -97.851489 84.863432 -106.134508 -3.633603 -9.192527 6.439565 0.253537 -0.825585 0.122096 13.673288 -58.650418 -10.762634 42.106958 85.306943 48.409125 -2.057175 -13.674413 0.418864 0.195905 0.565644 0.095957
-135.217882 51.643819 -58.038076 176.617456 -21.380274 1.391011 -2.313341 12.328947 0.489247 -0.179601 0.938237 0.101656 -0.316062 1.586269 0.173215 -2.064477 11.222404 1.033493 -1.981177 19.162434 -1.448169 -1.759695 -5.461203 -1.088667 6.605627 16.094956 11.952080 24.641716 -8.588404 -30.555764 138.130521 -54.411744 -178.216196 0.090058 4.149861 -13.733600 -4.456197 16.417101 -15.703618 -23.269983 -2.834036 31.415979 -120.093678 -59.809647 166.727798 14.161128 4.286421 13.375011 -11.161516 -61.409100 4.958710 -98.007622 84.872363 -106.284586 -3.644062 -9.204993 6.440636 0.255158 -0.798640 0.116031 13.713581 -58.647768 -10.787822 42.108503 85.314572 48.418024 -2.075758 -13.674989 0.437666 0.198425 0.560886 0.096571
-135.219367 51.643976 -58.042302 176.620163 -21.371757 1.387469 -2.311596 12.324990 0.492575 -0.179478 0.938289 0.101641 -0.305209 1.600350 0.171585 -2.049596 11.238678 1.032487 -1.990967 19.142178 -1.440960 -1.764630 -5.468991 -1.083819 6.573391 16.080690 11.958752 24.638072 -8.590709 -30.555743 138.097267 -54.380602 -178.192694 0.130761 4.138567 -13.746538 -4.474048 16.416144 -15.698137 -23.262321 -2.850886 31.424868 -119.964814 -59.772559 166.628004 14.139543 4.326153 13.361380 -11.170842 -61.415130 4.961392 -98.129687 84.887437 -106.401098 -3.666769 -9.218020 6.442441 0.265635 -0.756996 0.112848 13.724230 -58.655167 -10.791368 42.108884 85.320234 48.413789 -2.069560 -13.679381 0.448193 0.189657 0.560725 0.093003
-135.220240 51.643444 -58.045077 176.627205 -21.353862 1.380118 -2.305642 12.324584 0.499192 -0.179220 0.938388 0.101657 -0.304947 1.600786 0.171783 -2.056785 11.225518 1.034623 -1.983758 19.151024 -1.442303 -1.770701 -5.479611 -1.080036 6.564573 16.125347 11.969936 24.650326 -8.622473 -30.580947 138.053721 -54.364467 -178.157310 0.154805 4.134720 -13.768436 -4.474010 16.416062 -15.697700 -23.250193 -2.849443 31.418939 -119.828583 -59.742149 166.527034 14.121589 4.363496 13.356276 -11.192480 -61.430381 4.973745 -98.234009 84.901897 -106.499910 -3.688318 -9.234965 6.447127 0.272755 -0.737311 0.107084 13.731608 -58.673216 -10.797421 42.092748 85.325645 48.398479 -2.068264 -13.684416 0.454038 0.186842 0.563311 0.091738
-135.220059 51.642221 -58.046270 176.627000 -21.325807 1.370358 -2.289828 12.327996 0.507634 -0.185102 0.923555 0.103988 -0.304100 1.601822 0.171932 -2.050910 11.229277 1.036023 -1.984644 19.143224 -1.440863 -1.775746 -5.490365 -1.075148 6.556349 16.126346 11.978633 24.645529 -8.635830 -30.587548 137.953655 -54.347631 -178.090691 0.126374 4.136074 -13.765025 -4.473044 16.417830 -15.696778 -23.261029 -2.862247 31.431280 -119.695908 -59.723944 166.435701 14.145737 4.383111 13.341166 -11.228204 -61.454013 5.000436 -98.288618 84.917120 -106.552991 -3.677772 -9.255416 6.458014 0.255731 -0.719914 0.089456 13.779728 -58.701235 -10.821459 42.005920 85.338242 48.327252 -2.077341 -13.687784 0.457682 0.192690 0.564277 0.099357
-135.220242 51.641816 -58.049857 176.625826 -21.312784 1.365341 -2.278702 12.332645 0.512536 -0.178057 0.939719 0.102367 -0.302641 1.602820 0.172909 -2.056264 11.211744 1.043747 -1.981549 19.147711 -1.445614 -1.784455 -5.508054 -1.071760 6.549404 16.132549 11.983466 24.637460 -8.647950 -30.589121 137.930658 -54.329838 -178.071630 0.120467 4.135379 -13.764211 -4.473141 16.422068 -15.702068 -23.262649 -2.866560 31.433478 -119.604929 -59.696545 166.383787 14.116340 4.421680 13.347723 -11.246179 -61.464495 5.014979 -98.408904 84.935910 -106.668882 -3.697754 -9.276833 6.462157 0.267967 -0.699240 0.086017 13.801550 -58.714099 -10.825630 41.993091 85.346384 48.313303 -2.080948 -13.692477 0.470046 0.192269 0.563656 0.095336
